<svg xmlns="http://www.w3.org/2000/svg" viewBox="0 0 209.54 134.42"><defs><style>.cls-1,.cls-2{fill:#c59837;}.cls-2{font-size:17.33px;font-family:MyriadPro-BoldCond, Myriad Pro;font-weight:700;}.cls-3{letter-spacing:-0.03em;}.cls-4{letter-spacing:0.02em;}</style></defs><title>Asset 1</title><g id="Layer_2" data-name="Layer 2"><g id="menu"><path class="cls-1" d="M209.54,33.74c0,18.63-15.11,34.11-33.74,34.11h-16L155.73,47.5H175.8c7.39,0,13.38-6.36,13.38-13.75a13.23,13.23,0,0,0-13.38-13.2H119.28L101.57,67.48,83.95,20.36H54.3L33.8,109.78H11.15l20.5-89.42H0L4.61.19,175.8,0A33.74,33.74,0,0,1,209.54,33.74Zm-118,76L69.59,49.23,57.44,109.78Zm55.06,0L134.51,46.92l-23.72,62.86Z"/><text class="cls-2" transform="translate(0 130.09)">TECHNO<tspan class="cls-3" x="46.68" y="0">L</tspan><tspan x="52.8" y="0">OGY &amp; MEDIA PRODU</tspan><tspan class="cls-4" x="173.9" y="0">C</tspan><tspan x="181.16" y="0">TION</tspan></text></g></g></svg>