<svg xmlns="http://www.w3.org/2000/svg" viewBox="0 0 267.74 140.26"><defs><style>.cls-1{fill:#c59837;}</style></defs><title>Asset 1</title><g id="Layer_2" data-name="Layer 2"><g id="menu"><path class="cls-1" d="M267.74,43.11c0,23.81-19.3,43.59-43.11,43.59H204.17l-5.19-26h25.64c9.44,0,17.1-8.13,17.1-17.57a16.9,16.9,0,0,0-17.1-16.86H152.41l-22.64,60L107.26,26H69.38L43.19,140.26H14.24L40.43,26H0L5.89.24,224.62,0A43.11,43.11,0,0,1,267.74,43.11ZM117,140.26l-28-77.36L73.39,140.26Zm70.35,0L171.87,60l-30.31,80.31Z"/></g></g></svg>