<svg xmlns="http://www.w3.org/2000/svg" viewBox="0 0 173 160.95"><defs><style>.cls-1{fill:#fff;}</style></defs><title>Asset 8</title><g id="Layer_2" data-name="Layer 2"><g id="_4_SECLECTIONS" data-name="4 SECLECTIONS"><path class="cls-1" d="M166.43,0H6.57A6.57,6.57,0,0,0,0,6.57V127.74a6.57,6.57,0,0,0,6.57,6.57H66.86v21.12h-26a2.76,2.76,0,1,0,0,5.52h91.35a2.76,2.76,0,1,0,0-5.52h-26V134.31h60.29a6.57,6.57,0,0,0,6.57-6.57V6.57A6.57,6.57,0,0,0,166.43,0ZM100.61,155.43H72.38V134.31h28.23Zm66.86-27.69a1.06,1.06,0,0,1-1,1H6.57a1.06,1.06,0,0,1-1-1V6.57a1.06,1.06,0,0,1,1-1H166.43a1.06,1.06,0,0,1,1,1Z"/><path class="cls-1" d="M158.82,106.32H14.18a2.76,2.76,0,1,0,0,5.52H158.82a2.76,2.76,0,0,0,0-5.52Z"/><path class="cls-1" d="M40.49,97.12H55.21A2.76,2.76,0,0,0,58,94.36v-40a2.76,2.76,0,0,0-2.76-2.76H40.49a2.76,2.76,0,0,0-2.76,2.76v40A2.76,2.76,0,0,0,40.49,97.12Zm2.76-40h9.2V91.6h-9.2Z"/><path class="cls-1" d="M66.25,97.12H81a2.76,2.76,0,0,0,2.76-2.76V41.25A2.76,2.76,0,0,0,81,38.49H66.25a2.76,2.76,0,0,0-2.76,2.76V94.36A2.76,2.76,0,0,0,66.25,97.12ZM69,44h9.2V91.6H69Z"/><path class="cls-1" d="M92,97.12h14.72a2.76,2.76,0,0,0,2.76-2.76V28.9a2.76,2.76,0,0,0-2.76-2.76H92a2.76,2.76,0,0,0-2.76,2.76V94.36A2.76,2.76,0,0,0,92,97.12Zm2.76-65.46H104V91.6h-9.2Z"/><path class="cls-1" d="M117.78,97.12h14.72a2.76,2.76,0,0,0,2.76-2.76V67a2.76,2.76,0,0,0-2.76-2.76H117.78A2.76,2.76,0,0,0,115,67V94.36A2.76,2.76,0,0,0,117.78,97.12Zm2.76-27.34h9.2V91.6h-9.2Z"/></g></g></svg>