<svg xmlns="http://www.w3.org/2000/svg" viewBox="0 0 141.63 141.63"><defs><style>.cls-1{fill:#fff;}</style></defs><title>Asset 10</title><g id="Layer_2" data-name="Layer 2"><g id="menu"><path class="cls-1" d="M70.81,7.24a63.64,63.64,0,0,1,63.57,63.57,3.62,3.62,0,0,0,7.24,0A70.9,70.9,0,0,0,70.81,0a3.62,3.62,0,0,0,0,7.24Z"/><path class="cls-1" d="M70.81,141.63a3.62,3.62,0,1,0,0-7.24A63.65,63.65,0,0,1,12.61,96.33l8.85-2.8c1,3.31,4.63,12.28,16.25,21.29a1.21,1.21,0,0,0,1.48-1.91C28.11,104.33,24.67,95.7,23.77,92.8l18.88-6a37.37,37.37,0,0,0,33.74,21.42,2.41,2.41,0,1,0,0-4.83,32.54,32.54,0,1,1,0-65.07,2.41,2.41,0,0,0,0-4.83A37.34,37.34,0,0,0,45,50.65L32.37,40.51A49.16,49.16,0,0,1,44.22,29.64l4.26,4.85a1.2,1.2,0,0,0,1.68.13,26.7,26.7,0,0,1,14.37-5.38A1.21,1.21,0,0,0,65.68,28a1.22,1.22,0,0,0-1.26-1.15,28.74,28.74,0,0,0-14.87,5.23l-3.24-3.69a48.49,48.49,0,0,1,21.94-6.52A3.62,3.62,0,0,0,71.57,24,46.35,46.35,0,0,1,89,27.39a3.54,3.54,0,0,0,3.54-.5,49,49,0,0,1,10.4,7,3.56,3.56,0,0,0,1,3.23,46.38,46.38,0,0,1,10.21,14.59,3.6,3.6,0,0,0,2.46,2,48.32,48.32,0,0,1,2.84,12.41,3.61,3.61,0,0,0-1.33,2.91c0,.51,0,1,0,1.55a46.43,46.43,0,0,1-2.83,16,3.62,3.62,0,0,0,.39,3.24,48.93,48.93,0,0,1-6.53,10.89,3.55,3.55,0,0,0-3.09,1.1,46.55,46.55,0,0,1-14.25,10.68,3.61,3.61,0,0,0-2,3.07A48.45,48.45,0,0,1,78,118.9a3.59,3.59,0,0,0-3.36-1.8q-1.53.1-3.09.1a3.62,3.62,0,0,0,0,7.24c1.2,0,2.38,0,3.56-.12a3.62,3.62,0,0,0,3.34-3.06,50.63,50.63,0,0,0,12.08-3.32,3.59,3.59,0,0,0,2.89,1.5,3.53,3.53,0,0,0,1.57-.36,53.69,53.69,0,0,0,16.46-12.34,3.59,3.59,0,0,0-.08-4.88,50.9,50.9,0,0,0,6.3-10.53,3.71,3.71,0,0,0,1,.18,3.62,3.62,0,0,0,3.4-2.38A53.63,53.63,0,0,0,125.4,70.6c0-.6,0-1.19,0-1.78a3.64,3.64,0,0,0-3.53-3.49,50.69,50.69,0,0,0-2.74-11.88,3.61,3.61,0,0,0,1.69-4.69A53.66,53.66,0,0,0,109,31.91a3.58,3.58,0,0,0-4.78-.15,51.35,51.35,0,0,0-10.31-6.9,3.61,3.61,0,0,0-2.16-4.18,53.55,53.55,0,0,0-20.2-3.92,3.61,3.61,0,0,0-3.48,2.68,50.84,50.84,0,0,0-24,7.43,1.18,1.18,0,0,0-.52.25,1,1,0,0,0-.09.11,51.26,51.26,0,0,0-24,43.36,1.21,1.21,0,1,0,2.41,0,48.57,48.57,0,0,1,9-28.16L43.76,52.73a37.07,37.07,0,0,0-2.09,31.88l-30,9.49a63.49,63.49,0,0,1,11-64.84,3.62,3.62,0,1,0-5.48-4.74A70.82,70.82,0,0,0,70.81,141.63Z"/><path class="cls-1" d="M76.39,101.29a30.69,30.69,0,0,0,0-61.38,2.41,2.41,0,1,0,0,4.83,25.86,25.86,0,0,1,0,51.72,2.41,2.41,0,1,0,0,4.83Z"/><path class="cls-1" d="M83.22,110.35a40.29,40.29,0,0,0,8.91-3.14l-1.21-2.1A37.62,37.62,0,0,1,82.69,108a1.21,1.21,0,1,0,.53,2.36Z"/><path class="cls-1" d="M95.12,102.74l1.21,2.1A39.89,39.89,0,0,0,108,93.21L105.92,92A37.51,37.51,0,0,1,95.12,102.74Z"/><path class="cls-1" d="M105.72,49.48l2.09-1.21a41.86,41.86,0,0,0-11.6-11.54L95,38.82A39.37,39.37,0,0,1,105.72,49.48Z"/><path class="cls-1" d="M108.3,87.8,110.4,89a41.13,41.13,0,0,0,4.2-15.91h-2.41A38.72,38.72,0,0,1,108.3,87.8Z"/><path class="cls-1" d="M90.83,36.4,92,34.31A40.41,40.41,0,0,0,83.24,31a1.21,1.21,0,1,0-.57,2.34A37.75,37.75,0,0,1,90.83,36.4Z"/><path class="cls-1" d="M110.23,52.45l-2.09,1.2a37.57,37.57,0,0,1,4,14.61h2.41A39.91,39.91,0,0,0,110.23,52.45Z"/><path class="cls-1" d="M76.39,53.19a17.7,17.7,0,1,1-17.7,17.7A17.7,17.7,0,0,1,76.39,53.19Z"/></g></g></svg>