<svg xmlns="http://www.w3.org/2000/svg" viewBox="0 0 99.87 117.54"><defs><style>.cls-1{fill:#fff;}</style></defs><title>Asset 9</title><g id="Layer_2" data-name="Layer 2"><g id="menu"><path class="cls-1" d="M99,56.82c3.06-16.62-1.94-39.47-20.14-50.35A50.58,50.58,0,0,0,41.1,1.71C23.46,6.43,10.49,19.09,6.41,35.57A33.55,33.55,0,0,0,5.27,45.84a34.46,34.46,0,0,0,1.18,6.35,27.42,27.42,0,0,1,1.17,8.14C7.54,63.61,5.28,67,3.29,70c-2.18,3.28-4.06,6.11-3,8.72a6.39,6.39,0,0,0,4.9,3.14l.36,0a1.83,1.83,0,0,1,2.05,2c0,4.07.1,6.17,1.78,7.13a3.59,3.59,0,0,0-.3,1,3.49,3.49,0,0,0,1.1,3.09,6,6,0,0,0,3.11,1.59l.24.05a5,5,0,0,1,.06.88,21,21,0,0,1-.15,2.18c-.33,3.13-.77,7.42,5.5,9.47a12.92,12.92,0,0,0,3.87.47,61.31,61.31,0,0,0,17.41-3.34,22.13,22.13,0,0,1,2.86,9.22,2,2,0,0,0,2,2H94a1.94,1.94,0,0,0,1.83-1.35,2,2,0,0,0-.7-2.21c-2-1.54-8.74-17.75-8.94-23.57.59-1.34,1.38-2.85,2.32-4.6A92,92,0,0,0,99,56.82ZM82.26,90.21c0,4.68,4.27,17.06,7.9,23.41H46.84A28,28,0,0,0,44,105C49.64,102.81,54.64,100,57,96.81a2,2,0,0,0-3.11-2.38c-5.54,7.25-28.6,12.76-33.75,11.07-3.26-1.07-3.13-2.32-2.82-5.34a24.72,24.72,0,0,0,.18-2.58c0-3.3-1.33-4.28-3.33-4.75a2.51,2.51,0,0,1-1.05-.41,5.45,5.45,0,0,1,1.3-.92,2,2,0,0,0-.86-3.72c-.71,0-1.49,0-1.91-.05a30.29,30.29,0,0,1-.13-3.86A5.73,5.73,0,0,0,5.81,78c-1.41-.3-1.84-.68-1.88-.77-.28-.68,1.6-3.52,2.62-5,2.17-3.27,4.88-7.35,5-11.76a27.48,27.48,0,0,0-.81-7.26,19.52,19.52,0,0,1,7.38-4.07,6.07,6.07,0,0,1,2.91.2,2,2,0,0,0,1-3.78,9.88,9.88,0,0,0-4.76-.26A20.19,20.19,0,0,0,9.72,49a23.27,23.27,0,0,1-.54-3.47,29,29,0,0,1,1-9C14,21.21,25.63,9.9,42.11,5.49A46.52,46.52,0,0,1,76.88,9.83C93.48,19.76,98,40.78,95.17,56.11A87.39,87.39,0,0,1,85.07,84c-1.08,2-2,3.74-2.68,5.35A1.91,1.91,0,0,0,82.26,90.21Z"/><path class="cls-1" d="M86.15,61.29A5.87,5.87,0,0,0,81.38,55l-3.75-5.2a5.81,5.81,0,0,0,.52-1.34L81.79,47a5.86,5.86,0,1,0,5.67-9.59l-2.94-5.87a5.85,5.85,0,0,0-7.2-9.11L74,19.69a5.85,5.85,0,0,0-9.72-6.09l-5.81-1.45a5.84,5.84,0,0,0-11.24-.07l-7.76,1.55a5.85,5.85,0,0,0-9.35,6.9l-3.8,5.06A5.86,5.86,0,0,0,26,37.06l3.14,7.76A5.86,5.86,0,1,0,38.81,51H49.33a5.67,5.67,0,0,0,6.41,3.83l6.5,9.89a5.86,5.86,0,1,0,10.12,4.93l4.85-3.88a5.85,5.85,0,0,0,8.93-4.43Zm0-20.13a2,2,0,1,1-1.79,2.74s0,0,0-.05v0a1.92,1.92,0,0,1-.14-.7A2,2,0,0,1,86.18,41.16ZM78.38,27.06a2,2,0,1,1,1.21,2.21h-.07A2,2,0,0,1,78.38,27.06Zm-1.95,4.79h0l-3.62,9-6.34-5.07A5.84,5.84,0,0,0,68.28,33L76,31.48C76.17,31.61,76.3,31.72,76.44,31.84ZM74.35,47.57a2,2,0,1,1-1.88-2.49,1.93,1.93,0,0,1,.71.14h.07A2,2,0,0,1,74.35,47.57ZM68.55,15.7a2,2,0,1,1-2,2A2,2,0,0,1,68.55,15.7Zm-10.31.42,4.47,1.12c0,.14,0,.28,0,.42a5.88,5.88,0,0,0,5.88,5.88,5.81,5.81,0,0,0,3-.84l3.28,2.72a5.82,5.82,0,0,0-.38,2c0,.12,0,.23,0,.35l-6.38,1.28a5.88,5.88,0,0,0-4.5-3.49l-7.17-7.17A5.9,5.9,0,0,0,58.24,16.12Zm6.39,15.25a2,2,0,1,1-2-2A2,2,0,0,1,64.63,31.37ZM52.88,11.79a2,2,0,1,1-2,2A2,2,0,0,1,52.88,11.79Zm.39,9,5.88,5.88a5.87,5.87,0,0,0-2,2.71H52.52A5.87,5.87,0,0,0,50,26.33ZM41.1,17.32,47.48,16a5.89,5.89,0,0,0,2.45,2.75l-3.56,5.92-6.15-3.94a5.82,5.82,0,0,0,.91-3.11C41.13,17.54,41.1,17.43,41.1,17.32ZM49,31.37a2,2,0,1,1-2-2A2,2,0,0,1,49,31.37ZM35.26,15.7a2,2,0,1,1-2,2A2,2,0,0,1,35.26,15.7Zm-2.13,7.42a5.5,5.5,0,0,0,3.75.16l6,3.88a5.86,5.86,0,0,0-1.43,2.25H32.94a5.88,5.88,0,0,0-2.31-3Zm-5.7,10.21a2,2,0,1,1,2-2A2,2,0,0,1,27.42,33.33ZM33.3,51a2,2,0,1,1,2-2A2,2,0,0,1,33.3,51Zm1.11-7.72a5.9,5.9,0,0,0-1.11-.11c-.19,0-.38,0-.57.06l-2.67-6.59a5.87,5.87,0,0,0,2.87-3.26h8.56a5.86,5.86,0,0,0,1.77,2.53ZM49.33,47H38.81a5.82,5.82,0,0,0-.89-1.63l9.62-8,3.28,7.35A5.86,5.86,0,0,0,49.33,47Zm3.19-13.71h4.64a5.87,5.87,0,0,0,2.55,3.09L55.64,43.2a5.87,5.87,0,0,0-.8-.08c-.15,0-.29,0-.44,0L51,35.63A5.86,5.86,0,0,0,52.52,33.33ZM54.84,51a2,2,0,1,1,2-2A2,2,0,0,1,54.84,51ZM63.2,38.22l5.47,4.38a5.85,5.85,0,0,0-1.81,2.79L60.25,46.7A5.88,5.88,0,0,0,59.13,45Zm3.39,32.32a2,2,0,1,1,2-2A2,2,0,0,1,66.59,70.54Zm7.83-9.79a5.8,5.8,0,0,0,.35,1.92l-3.31,2.64A5.65,5.65,0,0,0,65.7,62.8l-6.5-9.89a5.83,5.83,0,0,0,1.26-2.25l6.61-1.32a5.87,5.87,0,0,0,7.67,3.12l2.42,3.35A5.86,5.86,0,0,0,74.43,60.75Zm1.91-18.1,3.74-9.34.23,0a5.69,5.69,0,0,0,.7-.07L83.38,38a5.86,5.86,0,0,0-3.08,5.13c0,.08,0,.15,0,.23l-2.63,1.05A5.87,5.87,0,0,0,76.33,42.65Zm4,20.06a2,2,0,1,1,2-2A2,2,0,0,1,80.3,62.71Z"/></g></g></svg>