<svg xmlns="http://www.w3.org/2000/svg" viewBox="0 0 156.35 160.94"><defs><style>.cls-1{fill:none;stroke:#d0a03f;stroke-miterlimit:10;}.cls-2{fill:#d0a03f;}</style></defs><title>Asset 4</title><g id="Layer_2" data-name="Layer 2"><g id="menu"><ellipse class="cls-1" cx="78.18" cy="80.47" rx="77.68" ry="79.97"/><path class="cls-2" d="M79.18,66.1A15.08,15.08,0,1,0,94.26,81.17,15.1,15.1,0,0,0,79.18,66.1Zm0,27.14A12.06,12.06,0,1,1,91.24,81.17,12.08,12.08,0,0,1,79.18,93.24Z"/><path class="cls-2" d="M56.56,35.94a9,9,0,1,0,9,9A9.06,9.06,0,0,0,56.56,35.94Zm0,15.08a6,6,0,1,1,6-6A6,6,0,0,1,56.56,51Z"/><path class="cls-2" d="M98.78,35.94a9,9,0,1,0,9,9A9.06,9.06,0,0,0,98.78,35.94Zm0,15.08a6,6,0,1,1,6-6A6,6,0,0,1,98.78,51Z"/><path class="cls-2" d="M43,82.68a9,9,0,1,0,9,9A9.06,9.06,0,0,0,43,82.68Zm0,15.08a6,6,0,1,1,6-6A6,6,0,0,1,43,97.76Z"/><path class="cls-2" d="M88.23,108.32a9,9,0,1,0,9,9A9.06,9.06,0,0,0,88.23,108.32Zm0,15.08a6,6,0,1,1,6-6A6,6,0,0,1,88.23,123.4Z"/><path class="cls-2" d="M110.85,85.7a6,6,0,1,0,6,6A6,6,0,0,0,110.85,85.7Zm0,9a3,3,0,1,1,3-3A3,3,0,0,1,110.85,94.75Z"/><path class="cls-2" d="M118.39,52.52a6,6,0,1,0,6,6A6,6,0,0,0,118.39,52.52Zm0,9a3,3,0,1,1,3-3A3,3,0,0,1,118.39,61.57Z"/><path class="cls-2" d="M59.58,105.3a6,6,0,1,0,6,6A6,6,0,0,0,59.58,105.3Zm0,9a3,3,0,1,1,3-3A3,3,0,0,1,59.58,114.35Z"/><rect class="cls-2" x="85.22" y="93.11" width="3.02" height="16.86" transform="matrix(0.98, -0.18, 0.18, 0.98, -16.77, 17.16)"/><rect class="cls-2" x="70.89" y="106.51" width="3.02" height="17.19" transform="translate(-57.69 154.67) rotate(-74.75)"/><rect class="cls-2" x="50.23" y="87.96" width="17.19" height="3.02" transform="translate(-21.47 18.64) rotate(-15.26)"/><rect class="cls-2" x="64.86" y="49.58" width="3.02" height="20.95" transform="translate(-21.22 41.61) rotate(-30.25)"/><rect class="cls-2" x="81.8" y="59.31" width="18.89" height="3.02" transform="translate(-5.83 111.82) rotate(-61.4)"/><rect class="cls-2" x="108.58" y="46.46" width="3.02" height="12.15" transform="translate(9.86 122.05) rotate(-60.26)"/><rect class="cls-2" x="98.02" y="77.18" width="3.02" height="15.53" transform="translate(-23.05 130.7) rotate(-60.95)"/><path class="cls-2" d="M79.18,72.13a9.06,9.06,0,0,0-9,9,1.51,1.51,0,0,0,3,0,6,6,0,0,1,6-6,1.51,1.51,0,0,0,0-3Z"/></g></g></svg>