<svg xmlns="http://www.w3.org/2000/svg" xmlns:xlink="http://www.w3.org/1999/xlink" viewBox="0 0 45.75 26.69"><defs><style>.cls-1{fill:none;}.cls-2{clip-path:url(#clip-path);}.cls-3{fill:#fff;}.cls-4{fill:#dc0032;}.cls-5{fill:#0d1e7e;}</style><clipPath id="clip-path"><rect class="cls-1" width="45.75" height="26.69"/></clipPath></defs><title>Asset 13</title><g id="Layer_2" data-name="Layer 2"><g id="menu"><g id="Layer_2-2" data-name="Layer 2"><g id="Layer_1-2" data-name="Layer 1-2"><g id="UNITED_KINGDOM" data-name="UNITED KINGDOM"><g class="cls-2"><rect class="cls-3" width="45.75" height="26.69"/><polygon class="cls-4" points="30.62 9.64 45.75 1.19 45.75 0 44.68 0 27.48 9.64 30.62 9.64"/><polygon class="cls-4" points="29.92 17.57 45.75 26.41 45.75 24.64 33.06 17.57 29.92 17.57"/><polygon class="cls-4" points="0 2.04 13.54 9.64 16.71 9.64 0 0.27 0 2.04"/><polygon class="cls-4" points="15.98 17.57 0 26.53 0 26.68 2.9 26.68 19.15 17.57 15.98 17.57"/><polygon class="cls-5" points="42.6 0 26.59 0 26.59 8.97 42.6 0"/><polygon class="cls-5" points="19.52 0 3.57 0 19.52 8.97 19.52 0"/><polygon class="cls-5" points="45.75 9.64 45.75 3.54 34.86 9.64 45.75 9.64"/><polygon class="cls-5" points="45.75 23.64 45.75 17.57 34.86 17.57 45.75 23.64"/><polygon class="cls-5" points="4.48 26.68 19.52 26.68 19.52 18.24 4.48 26.68"/><polygon class="cls-5" points="26.59 26.68 41.69 26.68 26.59 18.24 26.59 26.68"/><polygon class="cls-5" points="0 17.57 0 23.88 11.25 17.57 0 17.57"/><polygon class="cls-5" points="0 9.64 11.25 9.64 0 3.29 0 9.64"/><polygon class="cls-4" points="20.95 0 20.95 11.22 0 11.22 0 15.98 20.95 15.98 20.95 26.68 25.19 26.68 25.19 15.98 45.75 15.98 45.75 11.22 25.19 11.22 25.19 0 20.95 0"/></g></g></g></g></g></g></svg>