<svg xmlns="http://www.w3.org/2000/svg" viewBox="0 0 233.41 160.86"><defs><style>.cls-1{fill:#fff;}</style></defs><title>Asset 7</title><g id="Layer_2" data-name="Layer 2"><g id="menu"><path class="cls-1" d="M121.08,89.46,145,108.59l-3.3,4.2L116.63,93,91.87,112.62l-3.79-3.81,24.09-19.34L37.25,30,20.66,40.07c.16.48.65,2.08,1.23,3.64C32.36,71.84,42.78,100,53.37,128.08c1.42,3.77,1.36,6.7-2.29,9.41-2.4-6.31-4.82-12.49-7.12-18.72-10-27-19.66-54-30.08-80.82C11.2,31.08,6.35,25,2.33,18.72-1.07,13.38-1,9.16,4.05,5.35a31.23,31.23,0,0,1,10.61-5,7.74,7.74,0,0,1,9.4,4.05C33,22.6,49.84,32.75,64.76,44.83c16,13,32.33,25.58,48.39,38.49,2.58,2.07,4.2,2.24,6.9.08,24.94-20,50.18-39.6,74.89-59.85,4.88-4,8.11-10.15,11.7-15.57,6.46-9.73,16.25-10.49,24-1.5,2.85,3.32,4,7.28,1.12,10.94C221.12,30.69,216,46.51,210.23,62.08Q197,98,183.6,133.95c-.33.88-.71,1.75-1.14,2.83-3.49-2.12-4.11-4.53-2.68-8.29,10.55-27.93,20.9-55.93,31.31-83.92.66-1.78,1.27-3.57,1.62-4.57l-16.82-9.91ZM21.69,33.68c2.63-1.72,5.67-3.55,8.5-5.66A3.2,3.2,0,0,0,31,25.09a3,3,0,0,0-2.63-1.3,76.9,76.9,0,0,0-9.94,4.83c-.68.4-.95,2.38-.61,3.36C18.08,32.64,19.68,32.84,21.69,33.68Zm190.12,0c1.92-.91,3.5-1.2,3.66-1.84.25-1-.06-2.91-.79-3.36a69.93,69.93,0,0,0-9.46-4.76c-.71-.3-2.62.47-2.76,1-.25,1,0,2.82.76,3.37C206,30.29,209.11,32,211.82,33.72Z"/><path class="cls-1" d="M126.11,134c16.51,7.92,21.89,15,20,26.89H88c-3-10.46,3-18.65,19.65-26.93q-11.09-14.8-1-23.66a15.42,15.42,0,0,1,20.92.32C133.9,116.65,133.45,124.28,126.11,134Z"/><path class="cls-1" d="M81.63,152.39c-7.71,0-16.48-.08-25.25,0-3,0-3.4-1.41-3.14-3.89,1-9.54,6.26-15.37,15.56-17.52-4.78-10.7-4.46-15.85,1.05-19.93a12.35,12.35,0,0,1,14.72.41c5.32,4.33,5.57,9.69.73,19.14l7.56,3.57Z"/><path class="cls-1" d="M164.94,130.91c10.68,2.78,15.75,9.79,15.62,21.14H151.87L141,134.28l7.39-3.68c-4.79-9.63-4.59-14.59.69-19a12.21,12.21,0,0,1,15.07-.24C169.64,115.76,169.89,120.61,164.94,130.91Z"/><path class="cls-1" d="M141.52,128.31l-5.5,3.18-1-.69c.53-1.39.69-3.43,1.7-4s3,0,4.57.1Z"/><path class="cls-1" d="M97.8,131.52l-6.74-3.86c2.65-.64,4.38-1.65,5.42-1.16,1.19.56,1.75,2.44,2.59,3.75Z"/></g></g></svg>