<svg xmlns="http://www.w3.org/2000/svg" viewBox="0 0 156.35 160.94"><defs><style>.cls-1{fill:none;stroke:#d0a03f;stroke-miterlimit:10;}.cls-2{fill:#d0a03f;}</style></defs><title>Asset 3</title><g id="Layer_2" data-name="Layer 2"><g id="menu"><ellipse class="cls-1" cx="78.18" cy="80.47" rx="77.68" ry="79.97"/><path class="cls-2" d="M116.17,76.06c2.53-13.76-1.6-32.67-16.67-41.69a41.88,41.88,0,0,0-31.29-3.94c-14.61,3.91-25.34,14.39-28.72,28a27.77,27.77,0,0,0-.95,8.5,28.54,28.54,0,0,0,1,5.25,22.7,22.7,0,0,1,1,6.74c-.07,2.72-1.94,5.54-3.59,8-1.8,2.71-3.36,5.06-2.46,7.22a5.29,5.29,0,0,0,4.05,2.6l.29,0a1.52,1.52,0,0,1,1.7,1.62c0,3.37.08,5.11,1.48,5.91a3,3,0,0,0-.25.8,2.89,2.89,0,0,0,.91,2.56A4.93,4.93,0,0,0,45.2,109l.2,0a4.14,4.14,0,0,1,.05.73,17.4,17.4,0,0,1-.13,1.8c-.27,2.59-.64,6.15,4.55,7.84a10.69,10.69,0,0,0,3.2.39,50.76,50.76,0,0,0,14.41-2.76,18.32,18.32,0,0,1,2.37,7.63,1.62,1.62,0,0,0,1.62,1.62H112a1.61,1.61,0,0,0,1.51-1.12,1.66,1.66,0,0,0-.58-1.83c-1.68-1.27-7.23-14.69-7.4-19.51.49-1.11,1.15-2.36,1.92-3.81A76.19,76.19,0,0,0,116.17,76.06Zm-13.88,27.65c0,3.88,3.54,14.12,6.54,19.38H73A23.21,23.21,0,0,0,70.58,116c4.7-1.84,8.84-4.21,10.82-6.81a1.62,1.62,0,0,0-2.58-2c-4.59,6-23.68,10.56-27.94,9.17-2.7-.88-2.59-1.92-2.33-4.42a20.45,20.45,0,0,0,.15-2.14c0-2.73-1.1-3.55-2.76-3.93a2.08,2.08,0,0,1-.87-.34,4.51,4.51,0,0,1,1.07-.76,1.62,1.62,0,0,0-.71-3.08c-.59,0-1.24,0-1.58,0a25.08,25.08,0,0,1-.1-3.2A4.74,4.74,0,0,0,39,93.6c-1.17-.25-1.52-.56-1.55-.64-.24-.56,1.33-2.91,2.17-4.18,1.8-2.71,4-6.09,4.13-9.74a22.75,22.75,0,0,0-.67-6,16.16,16.16,0,0,1,6.11-3.37,5,5,0,0,1,2.41.17,1.62,1.62,0,0,0,.86-3.13,8.18,8.18,0,0,0-3.94-.22,16.72,16.72,0,0,0-6.28,3.12,19.27,19.27,0,0,1-.45-2.87,24,24,0,0,1,.86-7.49C45.77,46.58,55.4,37.22,69,33.57a38.52,38.52,0,0,1,28.78,3.59c13.74,8.22,17.49,25.62,15.15,38.32a72.35,72.35,0,0,1-8.37,23.06c-.89,1.66-1.66,3.1-2.22,4.43A1.58,1.58,0,0,0,102.29,103.71Z"/><path class="cls-2" d="M105.51,79.76a4.86,4.86,0,0,0-3.95-5.23l-3.1-4.3a4.81,4.81,0,0,0,.43-1.11l3-1.2a4.85,4.85,0,1,0,4.7-7.94l-2.44-4.86a4.84,4.84,0,0,0-6-7.54l-2.72-2.26a4.85,4.85,0,0,0-8.05-5l-4.81-1.2a4.83,4.83,0,0,0-9.3-.06L66.9,40.31A4.84,4.84,0,0,0,59.16,46L56,50.21a4.85,4.85,0,0,0-.28,9.49l2.6,6.43a4.86,4.86,0,1,0,8,5.08H75a4.7,4.7,0,0,0,5.31,3.17l5.38,8.19a4.85,4.85,0,1,0,8.38,4.09l4-3.21a4.84,4.84,0,0,0,7.4-3.67Zm0-16.67A1.62,1.62,0,1,1,104,65.36s0,0,0,0v0a1.59,1.59,0,0,1-.12-.58A1.62,1.62,0,0,1,105.53,63.1ZM99.08,51.42a1.64,1.64,0,1,1,1,1.83H100A1.62,1.62,0,0,1,99.08,51.42Zm-1.61,4h0l-3,7.49-5.25-4.2a4.84,4.84,0,0,0,1.5-2.31l6.42-1.28C97.24,55.19,97.35,55.28,97.46,55.38Zm-1.73,13a1.62,1.62,0,1,1-1.56-2.06,1.6,1.6,0,0,1,.58.12h.06A1.62,1.62,0,0,1,95.74,68.4ZM90.94,42a1.62,1.62,0,1,1-1.62,1.62A1.62,1.62,0,0,1,90.94,42Zm-8.53.35,3.7.93c0,.12,0,.23,0,.35a4.87,4.87,0,0,0,4.86,4.86,4.81,4.81,0,0,0,2.47-.69l2.72,2.26a4.81,4.81,0,0,0-.32,1.68c0,.1,0,.19,0,.29l-5.28,1.06a4.87,4.87,0,0,0-3.73-2.89l-5.94-5.94A4.88,4.88,0,0,0,82.4,42.37ZM87.69,55a1.62,1.62,0,1,1-1.62-1.62A1.62,1.62,0,0,1,87.69,55ZM78,38.77a1.62,1.62,0,1,1-1.62,1.62A1.62,1.62,0,0,1,78,38.77Zm.32,7.48,4.87,4.87a4.86,4.86,0,0,0-1.65,2.25H77.66a4.86,4.86,0,0,0-2.11-2.56Zm-10.08-2.9,5.28-1.06a4.88,4.88,0,0,0,2,2.28l-2.94,4.91-5.09-3.26a4.82,4.82,0,0,0,.75-2.58C68.24,43.54,68.21,43.45,68.21,43.35ZM74.72,55a1.62,1.62,0,1,1-1.62-1.62A1.62,1.62,0,0,1,74.72,55ZM63.37,42a1.62,1.62,0,1,1-1.62,1.62A1.62,1.62,0,0,1,63.37,42Zm-1.76,6.14a4.55,4.55,0,0,0,3.11.13l5,3.21a4.85,4.85,0,0,0-1.18,1.86H61.45a4.87,4.87,0,0,0-1.92-2.45Zm-4.72,8.45A1.62,1.62,0,1,1,58.51,55,1.62,1.62,0,0,1,56.89,56.61ZM61.75,71.2a1.62,1.62,0,1,1,1.62-1.62A1.62,1.62,0,0,1,61.75,71.2Zm.92-6.39a4.89,4.89,0,0,0-.92-.09c-.16,0-.31,0-.47,0l-2.21-5.45a4.86,4.86,0,0,0,2.38-2.7h7.08A4.85,4.85,0,0,0,70,58.71ZM75,68H66.31a4.82,4.82,0,0,0-.74-1.35l8-6.64,2.71,6.08A4.85,4.85,0,0,0,75,68Zm2.64-11.35h3.84a4.86,4.86,0,0,0,2.11,2.56l-3.37,5.62a4.86,4.86,0,0,0-.66-.07c-.13,0-.24,0-.37,0l-2.78-6.24A4.85,4.85,0,0,0,77.66,56.61ZM79.59,71.2a1.62,1.62,0,1,1,1.62-1.62A1.62,1.62,0,0,1,79.59,71.2Zm6.92-10.55L91,64.28a4.84,4.84,0,0,0-1.5,2.31l-5.47,1.09a4.87,4.87,0,0,0-.93-1.4Zm2.81,26.76a1.62,1.62,0,1,1,1.62-1.62A1.62,1.62,0,0,1,89.31,87.42Zm6.49-8.11a4.8,4.8,0,0,0,.29,1.59l-2.74,2.19A4.68,4.68,0,0,0,88.57,81l-5.38-8.19a4.83,4.83,0,0,0,1-1.86l5.47-1.09a4.86,4.86,0,0,0,6.35,2.59l2,2.77A4.85,4.85,0,0,0,95.8,79.31Zm1.58-15,3.09-7.74.19,0a4.73,4.73,0,0,0,.58-.06l2,3.92a4.85,4.85,0,0,0-2.55,4.25c0,.07,0,.13,0,.19l-2.18.87A4.86,4.86,0,0,0,97.38,64.33Zm3.29,16.61a1.62,1.62,0,1,1,1.62-1.62A1.62,1.62,0,0,1,100.66,80.93Z"/></g></g></svg>