<svg xmlns="http://www.w3.org/2000/svg" viewBox="0 0 140 109.4"><defs><style>.cls-1{fill:#fff;fill-rule:evenodd;}</style></defs><title>Asset 4</title><g id="Layer_2" data-name="Layer 2"><g id="dvtkTMP"><path class="cls-1" d="M0,102.56V17.79a3.19,3.19,0,0,0,.24-.48C1.57,13.05,4.36,11,8.83,11h2.11c0-.87,0-1.59,0-2.31C11,3.53,14.42.06,19.53,0S29.92,0,35.11,0s8.6,3.5,8.64,8.71c0,.71,0,1.43,0,2.13h63.44c0-.86,0-1.63,0-2.4A8.24,8.24,0,0,1,115.69,0c1.64,0,3.28,0,4.92,0a8.24,8.24,0,0,1,8.45,8.49c0,.8,0,1.6,0,2.24a40.25,40.25,0,0,1,5.2.68c3.23.86,4.81,3.35,5.74,6.37v84.76c-2.3,5.61-4.15,6.84-10.33,6.84h-26q-47.23,0-94.46,0a9.69,9.69,0,0,1-5.93-1.66A9.85,9.85,0,0,1,0,102.56Zm134.43-9.61V38.41H95.78c7.43,8.31,10.76,17.84,9.47,28.78S98.29,86.56,89,92.95Zm.1-60.12c0-4.44,0-8.71,0-13,0-2.42-1-3.41-3.42-3.41H8.9c-2.42,0-3.41,1-3.42,3.41q0,5.95,0,11.89c0,.35.06.69.1,1.06H16.83c.11-.19.21-.35.29-.51a7.86,7.86,0,0,1,7.3-4.87A7.73,7.73,0,0,1,32,32.08c.37.78.89.75,1.53.75,5.42,0,10.85,0,16.27,0a5.4,5.4,0,0,0,2.42-.64q17.8-9.68,35.58,0a5.61,5.61,0,0,0,2.55.66q21.26.06,42.51,0Zm-129,5.51V92.88H50.9c-9.24-6.36-14.85-14.76-16.15-25.72s2.08-20.51,9.45-28.76a3.44,3.44,0,0,0-.47-.09c-3.42,0-6.83,0-10.25,0a1.54,1.54,0,0,0-1.63,1A8.11,8.11,0,0,1,21,42.91a8.36,8.36,0,0,1-4.12-4.58ZM70,93A30.07,30.07,0,1,0,39.93,62.9,30.17,30.17,0,0,0,70,93Zm64.4,5.56H5.56c-.39,3.91.12,5.43,4.72,5.42q59.72-.11,119.44,0c4.29,0,5-.74,4.79-5A2.08,2.08,0,0,0,134.42,98.54ZM16.5,10.86H38.28c0-.54,0-1,0-1.44,0-3.12-.82-3.93-4-3.93-4.37,0-8.74.12-13.1,0C16.66,5.29,16.09,6.93,16.5,10.86Zm107.09,0c0-.82,0-1.58,0-2.34a2.82,2.82,0,0,0-3.07-3.06q-2.45-.06-4.9,0a2.58,2.58,0,0,0-2.8,2.1,21.1,21.1,0,0,0,0,3.3Zm-99,22a2.71,2.71,0,1,0,2.7,2.73A2.81,2.81,0,0,0,24.62,32.85Z"/><path class="cls-1" d="M115.31,27.36c-1.69,0-3.37,0-5.06,0a2.74,2.74,0,1,1,0-5.45q5.13,0,10.25,0a2.8,2.8,0,0,1,3,2.67c0,1.58-1.21,2.75-3.07,2.78S117,27.36,115.31,27.36Z"/><path class="cls-1" d="M101.7,24.64A2.71,2.71,0,1,1,99,21.91,2.81,2.81,0,0,1,101.7,24.64Z"/><path class="cls-1" d="M94.6,62.84A24.6,24.6,0,1,1,69.94,38.3,24.68,24.68,0,0,1,94.6,62.84ZM70,82A19.14,19.14,0,1,0,50.86,62.91,19.2,19.2,0,0,0,70,82Z"/><path class="cls-1" d="M70.59,49.25c6.81.14,13,6.38,13.07,13.16,0,1.86-1,3.15-2.63,3.21s-2.62-1.08-2.83-2.9c-.54-4.82-3.19-7.48-8-8-1.89-.21-3.06-1.37-2.93-2.93S68.7,49.21,70.59,49.25Z"/></g></g></svg>