<svg xmlns="http://www.w3.org/2000/svg" viewBox="0 0 128.83 128.83"><defs><style>.cls-1{fill:#fff;fill-rule:evenodd;}</style></defs><title>Asset 1</title><g id="Layer_2" data-name="Layer 2"><g id="web_design" data-name="web design"><path class="cls-1" d="M0,97.38V6.29c.25-.66.47-1.33.76-2C1.85,1.93,3.9.74,6.29,0H122.54c5.16,2.12,6.29,3.82,6.29,9.51q0,42.83,0,85.67c0,5.44-3.06,8.5-8.48,8.5H77c0,.79,0,1.45,0,2.11,0,4.67,3.07,7.77,7.76,8a12.74,12.74,0,0,1,12.31,11.15c.24,1.69-.12,3.06-1.7,3.94H33.47a3.24,3.24,0,0,1-1.74-3.44A12.79,12.79,0,0,1,36,116.87a12.49,12.49,0,0,1,8.15-3.13c4.79-.1,8.63-4.1,7.43-10.07h-1.5q-20.94,0-41.88,0c-2.33,0-4.5-.52-6-2.31A22.35,22.35,0,0,1,0,97.38ZM112.92,15.19H16V78.44h97Zm10.85,68.45H5c0,3.83,0,7.55,0,11.28,0,3,.72,3.72,3.71,3.72H120c.42,0,.84,0,1.26,0a2.44,2.44,0,0,0,2.46-2.39C123.82,92,123.78,87.86,123.78,83.64Zm-113-5.18V13.78c0-3,.72-3.71,3.71-3.71h99.76c3,0,3.73.72,3.73,3.7V78.43h5.79V77.12q0-34.28,0-68.56c0-2.73-.8-3.53-3.52-3.53H8.57C5.83,5,5,5.82,5,8.54Q5,42.82,5,77.1v1.35Zm80.81,45.3a14,14,0,0,0-.63-1.3,7.64,7.64,0,0,0-7-3.69q-19.62,0-39.23,0c-.38,0-.75,0-1.13,0a7.12,7.12,0,0,0-6.32,4.95ZM72,103.76H56.83a14.59,14.59,0,0,1-2.4,9.88h20C72.22,110.62,71.79,107.3,72,103.76Z"/><path class="cls-1" d="M21.64,41.64q0-5.85,0-11.7c0-2.39.88-3.27,3.27-3.27H43.53c2.39,0,3.27.88,3.27,3.27q0,11.83,0,23.65c0,2.39-.88,3.27-3.27,3.27H24.91c-2.39,0-3.27-.88-3.27-3.27Q21.63,47.62,21.64,41.64Zm5.09,10.1H41.67v-20H26.73Z"/><path class="cls-1" d="M77,41.77q0,5.91,0,11.83c0,2.39-.88,3.27-3.27,3.27H55.11c-2.39,0-3.27-.88-3.27-3.27q0-11.82,0-23.65c0-2.39.88-3.27,3.27-3.27H73.73c2.39,0,3.27.88,3.27,3.27Q77,35.86,77,41.77Zm-20-10v20H71.9v-20Z"/><path class="cls-1" d="M82,41.77q0-5.91,0-11.83c0-2.39.88-3.27,3.27-3.27h18.62c2.39,0,3.27.88,3.27,3.27q0,11.82,0,23.65c0,2.39-.88,3.27-3.27,3.27H85.3C82.91,56.86,82,56,82,53.6Q82,47.68,82,41.77Zm5.12-10v20H102.1v-20Z"/><path class="cls-1" d="M34.09,66.93c-3.19,0-6.37,0-9.56,0-2.1,0-3.37-1.63-2.69-3.37a2.45,2.45,0,0,1,2.44-1.64c6.63,0,13.25,0,19.87,0a2.51,2.51,0,0,1,2.62,2.5A2.56,2.56,0,0,1,44,66.92C40.72,67,37.41,66.93,34.09,66.93Z"/><path class="cls-1" d="M64.54,61.9c3.19,0,6.37,0,9.56,0,2.1,0,3.37,1.63,2.69,3.37a2.45,2.45,0,0,1-2.44,1.64c-6.62,0-13.25,0-19.87,0a2.51,2.51,0,0,1-2.62-2.5,2.56,2.56,0,0,1,2.75-2.5C57.92,61.88,61.23,61.9,64.54,61.9Z"/><path class="cls-1" d="M94.6,66.93c-3.23,0-6.46,0-9.69,0-2.1,0-3.36-1.64-2.68-3.37a2.46,2.46,0,0,1,2.45-1.63c6.63,0,13.25,0,19.87,0a2.5,2.5,0,1,1,0,5c-3.31,0-6.62,0-9.94,0Z"/><path class="cls-1" d="M59.36,93.6c-1.51,0-3,0-4.53,0-1.82,0-3-1-3-2.54s1.17-2.47,2.9-2.48q4.65,0,9.31,0a2.58,2.58,0,0,1,2.85,2.53c0,1.46-1.17,2.46-2.9,2.48C62.46,93.62,60.91,93.6,59.36,93.6Z"/><path class="cls-1" d="M74.53,93.58A2.5,2.5,0,1,1,77,91,2.57,2.57,0,0,1,74.53,93.58Z"/></g></g></svg>