<svg xmlns="http://www.w3.org/2000/svg" viewBox="0 0 39.46 39.46"><defs><style>.cls-1{fill:#bd9037;}.cls-2{fill:#fff;}</style></defs><title>Asset 2</title><g id="Layer_2" data-name="Layer 2"><g id="form"><path class="cls-1" d="M0,20.13v-.76l0-.17.06-1a18.21,18.21,0,0,1,.44-3A19.77,19.77,0,0,1,14.27.79,19.64,19.64,0,0,1,19.14,0l.25,0h.73l.22,0c.59,0,1.17.07,1.75.13a17.46,17.46,0,0,1,3.53.75A19.51,19.51,0,0,1,37,10.19a18.73,18.73,0,0,1,2.42,8.53l0,.16v1.75l0,.17-.1,1.29a17.94,17.94,0,0,1-.61,3.07A19.67,19.67,0,0,1,29.22,37a19.4,19.4,0,0,1-8.53,2.4l-.2,0H19l-.24,0-1.06-.08a18.69,18.69,0,0,1-3-.55A19.75,19.75,0,0,1,.61,24.49a19,19,0,0,1-.48-2.85L0,20.39Z"/><path class="cls-2" d="M19.92,11.94H31l1,.55.17.66V24.88c0,.66,0,1.31,0,2l-.54,1L31,28H8.82l-.62-.12-.58-.71,0-.53V13.16l.1-.54L8.43,12l.5-.05h11Zm9.51,1.22h-.21l-5.23,0-12.39.05H10.38l-.16.05,9.45,7.51,9.74-7.57Zm-7.89,7.68-.12.09L20.05,22l-.2.11-.64-.15L18,21h-.29l-1.47,1.08-2.76,2-2.34,1.73L10,26.7l-.09.14H29.48l.24,0,0-.08-8.13-5.92m9.38,5.35V13.58l-.12.06-1.18.92-1.52,1.19-1.87,1.45L23.86,19,22.64,20v.2l.57.41,2.39,1.74L28,24.11l2.8,2ZM8.77,26.1l.09,0,8-5.94L16.79,20l-1.26-1-1.38-1.09-1.4-1.11L10.52,15l-1.63-1.3-.12-.06Z"/></g></g></svg>