<svg xmlns="http://www.w3.org/2000/svg" viewBox="0 0 129.64 129.68"><defs><style>.cls-1{fill:#f2f2f2;fill-rule:evenodd;}</style></defs><title>Asset 3</title><g id="Layer_2" data-name="Layer 2"><g id="TITLE4"><path class="cls-1" d="M88.62,0h1a3,3,0,0,1,2.17,2.65c0,.63,0,1.26,0,1.9,0,2,0,4.1,0,6.27h1.55c4.68,0,9.36,0,14,0a10.94,10.94,0,0,1,11.39,11.61c0,17.67,0,35.34,0,53A3.15,3.15,0,0,0,119.91,78a28.27,28.27,0,0,1,8.57,13.89c.51,1.9.78,3.86,1.16,5.79v4.81c-.09.41-.2.81-.26,1.22-1.54,10-6.69,17.7-15.68,22.41-12.32,6.45-26.26,3.83-35.77-6.39a2.82,2.82,0,0,0-2.29-1q-31.76,0-63.51,0a22.93,22.93,0,0,1-2.53-.09,10.68,10.68,0,0,1-6.81-3.5A12.92,12.92,0,0,1,0,109.38V20.25a23.37,23.37,0,0,1,1.12-3.31c2.12-4.16,5.61-6.12,10.25-6.12h21c0-2.5.06-4.82,0-7.14a3.48,3.48,0,0,1,2-3.68H35.7a3.25,3.25,0,0,1,2.11,3.49c-.08,2.39,0,4.78,0,7.23H86.41c0-2.46,0-4.82,0-7.18C86.37,1.85,86.93.58,88.62,0ZM5.38,43.29v1.16q0,31.45,0,62.9c0,3.93,2.2,6.08,6.14,6.08H72.16c.4,0,.79,0,1.17-.05C68,100.89,69.12,89.25,78.61,79.45c9.88-10.21,21.83-11.57,34.72-6.14v-30Zm108-5.55V36.51c0-4.77,0-9.53,0-14.3,0-3.83-2.2-6-6.08-6H91.84c0,1.87,0,3.59,0,5.31,0,2.11.06,4.23-.16,6.32a5.23,5.23,0,0,1-5.48,4.56,5.38,5.38,0,0,1-.9-10.64l1-.23V16.28H37.79c0,.52,0,1,0,1.43,0,3.25.05,6.5-.06,9.74a5.27,5.27,0,0,1-5.28,4.95,5.42,5.42,0,0,1-5.36-4.62,5.36,5.36,0,0,1,4.19-6l1.05-.22V16.2H11.78c-4.29,0-6.39,2.08-6.4,6.34q0,6.9,0,13.8v1.4Zm10.81,62.13A24.29,24.29,0,1,0,100,124.24,24.35,24.35,0,0,0,124.24,99.86Z"/><path class="cls-1" d="M97.23,113.43c0-3.17,0-6.17,0-9.16A2.15,2.15,0,0,0,96.5,103C92.67,99.17,88.79,95.35,85,91.45a4.66,4.66,0,0,1-1.17-2.39,2.3,2.3,0,0,1,1.89-2.49,6.93,6.93,0,0,1,1.63-.17q12.59,0,25.19,0a5.44,5.44,0,0,1,2.09.35,2.57,2.57,0,0,1,.93,4,18.15,18.15,0,0,1-1.64,1.75c-3.52,3.53-7.05,7-10.53,10.59a2.83,2.83,0,0,0-.72,1.74c-.07,2.82,0,5.64,0,8.63.88,0,1.67,0,2.45,0a2.75,2.75,0,0,1,2.94,2.67,2.68,2.68,0,0,1-2.9,2.69q-5.19.06-10.38,0a2.63,2.63,0,0,1-2.86-2.71,2.7,2.7,0,0,1,2.82-2.65C95.48,113.4,96.28,113.43,97.23,113.43Zm-3.85-21.5,6.47,6.43,6.45-6.43Z"/></g></g></svg>