<svg xmlns="http://www.w3.org/2000/svg" viewBox="0 0 200.98 159.39"><defs><style>.cls-1{fill:#fff;}</style></defs><title>Asset 6</title><g id="Layer_2" data-name="Layer 2"><g id="_4_SECLECTIONS" data-name="4 SECLECTIONS"><path class="cls-1" d="M126.6,76.77,88.49,52.52a3.46,3.46,0,0,0-5.33,2.92V104a3.47,3.47,0,0,0,5.33,2.92L126.6,82.62a3.47,3.47,0,0,0,0-5.85ZM90.09,97.64V61.75l28.2,17.95Z"/><path class="cls-1" d="M197.51,0H3.47A3.46,3.46,0,0,0,0,3.47V155.93a3.46,3.46,0,0,0,3.47,3.47h194a3.46,3.46,0,0,0,3.47-3.47V3.47A3.46,3.46,0,0,0,197.51,0ZM34.65,76.23H6.93V45H34.65ZM6.93,83.16H34.65v31.19H6.93Zm34.65,34.65V6.93H159.39V152.46H41.58ZM194,76.23H166.32V45H194Zm-27.72,6.93H194v31.19H166.32ZM194,6.93V38.12H166.32V6.93ZM6.93,6.93H34.65V38.12H6.93Zm0,145.53V121.28H34.65v31.19Zm187.11,0H166.32V121.28H194Z"/></g></g></svg>