<svg xmlns="http://www.w3.org/2000/svg" viewBox="0 0 39.46 39.46"><defs><style>.cls-1{fill:#bd9037;}</style></defs><title>Asset 1</title><g id="Layer_2" data-name="Layer 2"><g id="form"><path class="cls-1" d="M19.73,0A19.73,19.73,0,1,0,39.46,19.73,19.73,19.73,0,0,0,19.73,0M30.94,28l-1.16,1.18a4.11,4.11,0,0,1-3.21,1.28,9.67,9.67,0,0,1-3.74-.94A23.33,23.33,0,0,1,10.71,16.84a8,8,0,0,1-.54-2.29,4.19,4.19,0,0,1,1.33-3.85L12.62,9.6a1.46,1.46,0,0,1,2.22-.11c1.19,1.12,2.33,2.26,3.45,3.45l-.1,2.23-1.72,1.72-.14,1.24a26.91,26.91,0,0,0,6.09,6.1l1.3-.14,1.72-1.73,2.24-.06Q29.41,24,31.06,25.7A1.47,1.47,0,0,1,30.94,28"/></g></g></svg>