<svg xmlns="http://www.w3.org/2000/svg" viewBox="0 0 156.35 160.94"><defs><style>.cls-1{fill:none;stroke:#d0a03f;stroke-miterlimit:10;}.cls-2{fill:#d0a03f;}</style></defs><title>Asset 2</title><g id="Layer_2" data-name="Layer 2"><g id="menu"><ellipse class="cls-1" cx="78.18" cy="80.47" rx="77.68" ry="79.97"/><path class="cls-2" d="M78.68,32.45a47.89,47.89,0,0,1,47.83,47.83,2.72,2.72,0,0,0,5.45,0A53.34,53.34,0,0,0,78.68,27a2.72,2.72,0,0,0,0,5.45Z"/><path class="cls-2" d="M78.68,133.57a2.72,2.72,0,1,0,0-5.45,47.9,47.9,0,0,1-43.8-28.63l6.66-2.11c.75,2.49,3.48,9.24,12.23,16A.91.91,0,0,0,54.89,112C46.55,105.5,44,99,43.29,96.83l14.2-4.49a28.12,28.12,0,0,0,25.39,16.12,1.82,1.82,0,1,0,0-3.63,24.48,24.48,0,1,1,0-49,1.82,1.82,0,0,0,0-3.63,28.1,28.1,0,0,0-23.6,12.88l-9.53-7.63a37,37,0,0,1,8.92-8.18L61.88,53a.91.91,0,0,0,1.26.1A20.09,20.09,0,0,1,74,49a.91.91,0,0,0,.87-.95.92.92,0,0,0-.95-.87,21.63,21.63,0,0,0-11.19,3.93l-2.44-2.78a36.48,36.48,0,0,1,16.51-4.9,2.72,2.72,0,0,0,2.49,1.62A34.87,34.87,0,0,1,92.4,47.61a2.66,2.66,0,0,0,2.66-.37,36.88,36.88,0,0,1,7.83,5.26,2.68,2.68,0,0,0,.74,2.43,34.9,34.9,0,0,1,7.68,11,2.71,2.71,0,0,0,1.85,1.53,36.36,36.36,0,0,1,2.14,9.34,2.71,2.71,0,0,0-1,2.19c0,.39,0,.77,0,1.17a34.94,34.94,0,0,1-2.13,12.07,2.72,2.72,0,0,0,.29,2.44,36.82,36.82,0,0,1-4.91,8.2,2.67,2.67,0,0,0-2.32.83,35,35,0,0,1-10.72,8A2.72,2.72,0,0,0,93,114a36.46,36.46,0,0,1-8.9,2.46,2.7,2.7,0,0,0-2.53-1.35q-1.15.07-2.32.08a2.72,2.72,0,0,0,0,5.45c.9,0,1.79,0,2.68-.09a2.72,2.72,0,0,0,2.51-2.3,38.09,38.09,0,0,0,9.09-2.5,2.7,2.7,0,0,0,2.18,1.13,2.66,2.66,0,0,0,1.18-.27,40.4,40.4,0,0,0,12.39-9.29,2.7,2.7,0,0,0-.06-3.67A38.3,38.3,0,0,0,114,95.72a2.79,2.79,0,0,0,.77.14,2.72,2.72,0,0,0,2.56-1.79,40.35,40.35,0,0,0,2.47-13.95c0-.45,0-.89,0-1.34a2.74,2.74,0,0,0-2.66-2.62A38.15,38.15,0,0,0,115,67.23a2.72,2.72,0,0,0,1.27-3.53A40.38,40.38,0,0,0,107.41,51a2.69,2.69,0,0,0-3.59-.11,38.64,38.64,0,0,0-7.75-5.19,2.72,2.72,0,0,0-1.62-3.15,40.29,40.29,0,0,0-15.2-2.95,2.72,2.72,0,0,0-2.62,2,38.25,38.25,0,0,0-18,5.59.89.89,0,0,0-.39.19.77.77,0,0,0-.06.09A38.57,38.57,0,0,0,40.08,80.13a.91.91,0,1,0,1.82,0,36.55,36.55,0,0,1,6.76-21.19l9.67,7.74a27.9,27.9,0,0,0-1.57,24L34.18,97.8A47.77,47.77,0,0,1,42.48,49a2.73,2.73,0,1,0-4.12-3.56,53.29,53.29,0,0,0,40.32,88.12Z"/><path class="cls-2" d="M82.88,103.22a23.09,23.09,0,0,0,0-46.19,1.82,1.82,0,1,0,0,3.63,19.46,19.46,0,0,1,0,38.92,1.82,1.82,0,1,0,0,3.63Z"/><path class="cls-2" d="M88,110a30.32,30.32,0,0,0,6.7-2.37l-.91-1.58a28.3,28.3,0,0,1-6.19,2.17A.91.91,0,1,0,88,110Z"/><path class="cls-2" d="M97,104.31l.91,1.58a30,30,0,0,0,8.79-8.75l-1.58-.91A28.22,28.22,0,0,1,97,104.31Z"/><path class="cls-2" d="M104.95,64.23l1.57-.91a31.5,31.5,0,0,0-8.73-8.69l-.91,1.58A29.62,29.62,0,0,1,104.95,64.23Z"/><path class="cls-2" d="M106.88,93.06l1.58.91a31,31,0,0,0,3.16-12H109.8A29.14,29.14,0,0,1,106.88,93.06Z"/><path class="cls-2" d="M93.74,54.39l.91-1.58A30.41,30.41,0,0,0,88,50.35a.91.91,0,1,0-.43,1.76A28.41,28.41,0,0,1,93.74,54.39Z"/><path class="cls-2" d="M108.34,66.47l-1.57.91a28.27,28.27,0,0,1,3,11h1.82A30,30,0,0,0,108.34,66.47Z"/><path class="cls-2" d="M82.88,67A13.32,13.32,0,1,1,69.56,80.34,13.32,13.32,0,0,1,82.88,67Z"/></g></g></svg>