<svg xmlns="http://www.w3.org/2000/svg" viewBox="0 0 161.87 161.87"><defs><style>.cls-1{fill:#fff;}</style></defs><title>Asset 11</title><g id="Layer_2" data-name="Layer 2"><g id="menu"><path class="cls-1" d="M80.94,54a27,27,0,1,0,27,27A27,27,0,0,0,80.94,54Zm0,48.56a21.58,21.58,0,1,1,21.58-21.58A21.61,21.61,0,0,1,80.94,102.52Z"/><path class="cls-1" d="M40.47,0A16.19,16.19,0,1,0,56.66,16.19,16.2,16.2,0,0,0,40.47,0Zm0,27A10.79,10.79,0,1,1,51.26,16.19,10.8,10.8,0,0,1,40.47,27Z"/><path class="cls-1" d="M116,0A16.19,16.19,0,1,0,132.2,16.19,16.21,16.21,0,0,0,116,0Zm0,27A10.79,10.79,0,1,1,126.8,16.19,10.8,10.8,0,0,1,116,27Z"/><path class="cls-1" d="M16.19,83.63A16.19,16.19,0,1,0,32.37,99.82,16.21,16.21,0,0,0,16.19,83.63Zm0,27A10.79,10.79,0,1,1,27,99.82,10.8,10.8,0,0,1,16.19,110.61Z"/><path class="cls-1" d="M97.12,129.5a16.19,16.19,0,1,0,16.19,16.19A16.21,16.21,0,0,0,97.12,129.5Zm0,27a10.79,10.79,0,1,1,10.79-10.79A10.8,10.8,0,0,1,97.12,156.48Z"/><path class="cls-1" d="M137.59,89a10.79,10.79,0,1,0,10.79,10.79A10.8,10.8,0,0,0,137.59,89Zm0,16.19a5.4,5.4,0,1,1,5.4-5.4A5.4,5.4,0,0,1,137.59,105.22Z"/><path class="cls-1" d="M151.08,29.68a10.79,10.79,0,1,0,10.79,10.79A10.8,10.8,0,0,0,151.08,29.68Zm0,16.19a5.4,5.4,0,1,1,5.4-5.4A5.4,5.4,0,0,1,151.08,45.86Z"/><path class="cls-1" d="M45.86,124.1a10.79,10.79,0,1,0,10.79,10.79A10.8,10.8,0,0,0,45.86,124.1Zm0,16.19a5.4,5.4,0,1,1,5.4-5.4A5.4,5.4,0,0,1,45.86,140.29Z"/><rect class="cls-1" x="91.74" y="102.28" width="5.4" height="30.16" transform="translate(-19.47 18.79) rotate(-10.31)"/><rect class="cls-1" x="66.11" y="126.26" width="5.4" height="30.76" transform="translate(-85.95 170.76) rotate(-74.75)"/><rect class="cls-1" x="29.14" y="93.07" width="30.76" height="5.4" transform="translate(-23.64 15.1) rotate(-15.26)"/><rect class="cls-1" x="55.31" y="24.41" width="5.4" height="37.48" transform="translate(-13.84 35.1) rotate(-30.25)"/><rect class="cls-1" x="85.61" y="41.82" width="33.8" height="5.4" transform="translate(14.36 113.22) rotate(-61.4)"/><rect class="cls-1" x="133.53" y="18.82" width="5.4" height="21.74" transform="translate(42.87 133.24) rotate(-60.26)"/><rect class="cls-1" x="114.65" y="73.78" width="5.4" height="27.78" transform="translate(-16.28 147.68) rotate(-60.95)"/><path class="cls-1" d="M80.94,64.75A16.2,16.2,0,0,0,64.75,80.94a2.7,2.7,0,0,0,5.4,0A10.8,10.8,0,0,1,80.94,70.14a2.7,2.7,0,0,0,0-5.4Z"/></g></g></svg>