<svg xmlns="http://www.w3.org/2000/svg" viewBox="0 0 151.62 151.53"><defs><style>.cls-1{fill:#fff;fill-rule:evenodd;}</style></defs><title>Asset 1</title><g id="Layer_2" data-name="Layer 2"><g id="THITRUONG"><path class="cls-1" d="M151.62,136a46.52,46.52,0,0,1-2.42,6.6,16.63,16.63,0,0,1-10.82,8.34,17.39,17.39,0,0,1-19.33-7.57c-5.71-9-11.23-18.12-18.26-26.19-4.21-4.83-8.51-9.58-12.59-14.16-3.63,1.84-6.89,3.69-10.32,5.17a53.64,53.64,0,0,1-23.81,4.23,55.36,55.36,0,0,1-32.93-12.33,55.19,55.19,0,0,1-17.08-23A53.72,53.72,0,0,1,.22,60.13,8.66,8.66,0,0,0,0,59V53.08c.25-1.9.47-3.8.77-5.69A54.92,54.92,0,0,1,20.28,13,54.43,54.43,0,0,1,53.7.06a55,55,0,0,1,38.15,12.6A54.33,54.33,0,0,1,111,43a55.1,55.1,0,0,1-6.85,42.92c-.44.71-.89,1.41-1.42,2.25,2.32,2.15,4.6,4.3,6.93,6.42,10.26,9.34,21.79,16.95,33.56,24.2A17.07,17.07,0,0,1,151.38,131a2.2,2.2,0,0,0,.24.52ZM56.19,106.61A50.36,50.36,0,1,0,6,55.62,50.43,50.43,0,0,0,56.19,106.61Zm49.33,6.81a7.51,7.51,0,0,0,.44.65c6.83,8,12.34,17,17.92,25.88a11.35,11.35,0,0,0,9.66,5.58A11.72,11.72,0,0,0,140.38,124c-9-5.76-18.17-11.31-26.49-18.09a3.21,3.21,0,0,0-.58-.31Zm-4-4.68,7.11-7.11-9.41-8.56L93,99.55Z"/><path class="cls-1" d="M59.23,41.67c0-4.71,0-9.2,0-13.68,0-3.1,1-4.08,4.05-4.09H78.67c3.32,0,4.24.91,4.24,4.2q0,23.61,0,47.22v1.81c1.18.06,2.21,0,3.23.17a2.9,2.9,0,0,1,2.68,2.85A2.94,2.94,0,0,1,86.19,83a10.33,10.33,0,0,1-1.47.09H22a10.55,10.55,0,0,1-1.62-.1,2.87,2.87,0,0,1,.06-5.71c1-.13,2.06-.12,3.29-.18V75.54c0-4.09,0-8.19,0-12.29,0-2.71,1-3.79,3.74-3.8,4.1,0,8.19,0,12.29,0h1.74V54.13c0-2.91,0-5.82,0-8.73,0-2.62,1.05-3.7,3.67-3.72,4,0,8.09,0,12.14,0Zm6-11.79V77.11H76.88V29.88ZM47.5,47.65V77.11H59.11V47.65ZM41.38,77.13V65.48H29.69V77.13Z"/><path class="cls-1" d="M59.2,14.78a2.89,2.89,0,0,1-2.7,2.83c-2.44.31-4.93.34-7.33.81C37.56,20.64,28.83,27,22.83,37.15c-.35.59-.65,1.22-1.05,1.78a2.91,2.91,0,0,1-5-3A41.88,41.88,0,0,1,20,30.65c8.79-12,20.57-18.33,35.45-18.83C57.78,11.74,59.24,12.9,59.2,14.78Z"/><path class="cls-1" d="M14.87,45.36a2.13,2.13,0,0,1,2.1,2.2,2.16,2.16,0,1,1-4.31-.13A2.11,2.11,0,0,1,14.87,45.36Z"/></g></g></svg>