<svg xmlns="http://www.w3.org/2000/svg" viewBox="0 0 130.98 130.98"><defs><style>.cls-1{fill:#fff;fill-rule:evenodd;}</style></defs><title>Asset 2</title><g id="Layer_2" data-name="Layer 2"><g id="HAYMANGTH"><path class="cls-1" d="M131,61.91v7.68a8.87,8.87,0,0,0-.22,1.1,60.89,60.89,0,0,1-7.4,25.41Q107.91,124,76.51,130c-2.46.47-5,.69-7.44,1H61.4a6.9,6.9,0,0,0-1-.21A62.14,62.14,0,0,1,32.16,122C15.12,111.64,4.68,96.64,1,77c-.46-2.46-.68-5-1-7.44V61.91a9.1,9.1,0,0,0,.22-1.1A62.22,62.22,0,0,1,7.54,35.24C17.66,16.62,33.06,5.06,54,1c2.46-.47,5-.69,7.44-1h7.16l1.38.2c3.53.54,7.12.84,10.58,1.68a64.51,64.51,0,0,1,31.26,17.7A64.9,64.9,0,0,1,130,54.48C130.4,56.94,130.65,59.43,131,61.91Zm-61.87,0c5.37,0,10.64,0,15.91,0a1.28,1.28,0,0,0,.86-.69,12.41,12.41,0,0,1,5.53-5.8A1.41,1.41,0,0,0,92,54.24c-.61-4.08-1.3-8.14-1.94-12.21a1.14,1.14,0,0,0-1.12-1.12c-4.12-.63-8.22-1.38-12.35-1.93-2.46-.33-5-.37-7.49-.55ZM61.33,38.33c-4.06.38-8,.73-12,1.15a1.71,1.71,0,0,0-1,.83,11.42,11.42,0,0,1-7.43,5.42c-.71.16-1,.42-1.06,1.13-.36,3.43-.84,6.85-1.16,10.28-.14,1.54,0,3.11,0,4.68H61.33Zm.07,31.32H38.57c-.05.14-.11.22-.11.29a107.52,107.52,0,0,0,2.34,19.22,1.57,1.57,0,0,0,1,1c4,.69,8,1.3,12,1.88a1.31,1.31,0,0,0,1.05-.57,12.37,12.37,0,0,1,5.9-5.61,1.25,1.25,0,0,0,.62-.91C61.41,79.88,61.4,74.82,61.4,69.65Zm7.68,0c0,5.23,0,10.34,0,15.44,0,.29.41.69.72.84a12.47,12.47,0,0,1,5.73,5.44A1.54,1.54,0,0,0,76.8,92c4.08-.59,8.15-1.28,12.23-1.88a1.2,1.2,0,0,0,1.17-1.19c.52-3.28,1-6.56,1.64-9.82.36-1.81.26-3.22-1.78-3.83-.19-.06-.33-.26-.5-.39a12.39,12.39,0,0,1-4-5.28Zm50.58-23.81q-9.59-25-34.49-34.5c.55,1,1.21,1.93,1.85,2.86A69.55,69.55,0,0,1,95.8,33.64a2.13,2.13,0,0,0,1.58,1.58c2.94,1,5.9,2,8.78,3.11A63.82,63.82,0,0,1,119.66,45.81ZM85.28,119.62a55.69,55.69,0,0,0,21-13.21A56.64,56.64,0,0,0,119.8,85.36c-2.08,1.33-3.91,2.57-5.81,3.69A71.39,71.39,0,0,1,97.4,95.88a1.93,1.93,0,0,0-1.48,1.49c-.58,2-1.2,3.9-1.91,5.82A65.37,65.37,0,0,1,85.28,119.62Zm-39.74.26a4.76,4.76,0,0,0-.26-.58A66.38,66.38,0,0,1,35,97.51,1.91,1.91,0,0,0,33.53,96a66.76,66.76,0,0,1-22-10.37s-.11,0-.3.08C17.67,102,29,113.36,45.55,119.88Zm-15-58c.6-5.56,1.19-11,1.8-16.48.15-1.34-.49-1.89-1.77-1.35-2.39,1-4.82,2-7.13,3.13a35.77,35.77,0,0,0-11.79,9,15.89,15.89,0,0,0-3.23,5.68Zm57-29.33c-1.13-2.65-2.16-5.39-3.43-8a38.72,38.72,0,0,0-9.31-12.83,16.06,16.06,0,0,0-5.64-3.29V30.54ZM8.14,69.64C13.21,80.06,22.68,84,32.4,87.71c-.63-6.13-1.24-12.07-1.86-18.07ZM45,11.48C33.16,13.83,13,34.1,11.45,45.69a60.59,60.59,0,0,1,15.67-8.61c-.09-.7-.2-1.29-.23-1.87A11.57,11.57,0,0,1,37.78,23a1.69,1.69,0,0,0,1.2-.62C41.07,18.72,43.1,15,45,11.48ZM61.34,8.13A51.63,51.63,0,0,0,56.68,11c-4.87,3.72-7.94,8.81-10.47,14.27-.14.3.15.89.37,1.26.84,1.42,1.82,2.75,2.56,4.21.37.72.64,1.11,1.48.86a4.88,4.88,0,0,1,1-.1l9.7-.79ZM87.69,98.34c-3.8.5-7.25.93-10.7,1.43a1.6,1.6,0,0,0-1,.85,11.39,11.39,0,0,1-6,6.28,1.29,1.29,0,0,0-.87,1.44c0,4.26,0,8.52,0,12.79v1.38a15.51,15.51,0,0,0,6.72-4A43.05,43.05,0,0,0,85,105C85.92,102.84,86.74,100.66,87.69,98.34ZM122.6,61.91a17.39,17.39,0,0,0-4.19-6.7,43.58,43.58,0,0,0-13.72-9.14c-2.06-.93-4.18-1.72-6.36-2.62.49,3.7.93,7.15,1.44,10.6a1.46,1.46,0,0,0,.78.94A11.79,11.79,0,0,1,107,61.2a1.36,1.36,0,0,0,1,.68C112.82,61.92,117.62,61.91,122.6,61.91ZM61.4,122.63c0-5,0-9.89,0-14.74,0-.31-.45-.75-.8-.92-2.06-1-4.07-2.23-4.89-4.3-1.06-2.7-2.93-3.24-5.44-3.36-2.27-.11-4.53-.58-6.87-.9a5.45,5.45,0,0,0,.12.6,55,55,0,0,0,8.79,16.76A20.19,20.19,0,0,0,61.4,122.63ZM122.6,69.56c-5,0-9.84,0-14.65,0a1.4,1.4,0,0,0-1,.73,11.87,11.87,0,0,1-6.48,6.2,1.47,1.47,0,0,0-.74,1c-.39,2.52-.7,5.06-1,7.59-.1.77-.22,1.55-.36,2.48,1-.35,1.81-.61,2.6-.91a51.56,51.56,0,0,0,16.09-9.21A18.43,18.43,0,0,0,122.6,69.56Zm-26.16,0a3.83,3.83,0,1,0-3.82-3.83A3.87,3.87,0,0,0,96.44,69.58ZM69.07,96.49a3.83,3.83,0,1,0-3.87,3.79A3.87,3.87,0,0,0,69.07,96.49ZM42.2,34.5a3.83,3.83,0,1,0-3.79,3.87A3.86,3.86,0,0,0,42.2,34.5Z"/></g></g></svg>