<svg xmlns="http://www.w3.org/2000/svg" viewBox="0 0 162.09 162.37"><defs><style>.cls-1{fill:#fff;}</style></defs><title>Asset 5</title><g id="Layer_2" data-name="Layer 2"><g id="_4_SECLECTIONS" data-name="4 SECLECTIONS"><g id="surface1"><path class="cls-1" d="M73.71,71.66A26.17,26.17,0,0,0,54.9,96.74v23.53a2.61,2.61,0,0,0,2.61,2.62h47.06a2.61,2.61,0,0,0,2.61-2.62V96.74a26.18,26.18,0,0,0-18.8-25.08,18.3,18.3,0,1,0-14.68,0ZM102,96.74v20.91H60.13V96.74a20.92,20.92,0,1,1,41.83,0ZM81,41.83A13.07,13.07,0,1,1,68,54.9,13.07,13.07,0,0,1,81,41.83Z"/><path class="cls-1" d="M25.06,39.66l-.09.22,1.09.46a10.2,10.2,0,0,0,2.58,1.09l1.15.48.09-.22a10.41,10.41,0,0,0,1.49.15,10.36,10.36,0,0,0,5.28-1.48l9.27,9.27,3.7-3.7-9.27-9.27a10.36,10.36,0,0,0,1.48-5.28,10.24,10.24,0,0,0-.15-1.49l.22-.1-.49-1.15a10.15,10.15,0,0,0-1.08-2.58L39.88,25l-.22.09A10.71,10.71,0,0,0,38.77,24,10.7,10.7,0,0,0,24,24a10.46,10.46,0,0,0,0,14.79A10.64,10.64,0,0,0,25.06,39.66Zm2.62-12a5.23,5.23,0,1,1,7.39,7.39,5.35,5.35,0,0,1-7.39,0A5.23,5.23,0,0,1,27.68,27.68Z"/><path class="cls-1" d="M137,122.45l.1-.23-1.46-.62a10.11,10.11,0,0,0-1.6-.68l-1.75-.74-.13.31a10.82,10.82,0,0,0-6.72,1.27l-9.29-9.29-3.7,3.7,9.27,9.27a10.36,10.36,0,0,0-1.48,5.28,10.55,10.55,0,0,0,.15,1.49l-.23.09.49,1.15a10.21,10.21,0,0,0,1.08,2.58l.46,1.09.22-.09a10.45,10.45,0,1,0,15.68-13.71A9.57,9.57,0,0,0,137,122.45Zm-2.61,12a5.35,5.35,0,0,1-7.39,0,5.23,5.23,0,1,1,7.39,0Z"/><path class="cls-1" d="M151.64,70.59a10.19,10.19,0,0,0-1.5.15l-.14-.33-2.28,1-.3.13-2.25.95.14.33a10.43,10.43,0,0,0-3.76,5.65H128.11v5.23h13.44a10.42,10.42,0,0,0,3.77,5.66l-.14.33,2.25.95.29.13,2.27,1,.14-.34a10.44,10.44,0,1,0,1.5-20.76Zm0,15.69A5.23,5.23,0,1,1,156.87,81,5.23,5.23,0,0,1,151.64,86.28Z"/><path class="cls-1" d="M120.19,29.79l.23.1a10.54,10.54,0,0,0-.15,1.49,10.36,10.36,0,0,0,1.48,5.28l-9.27,9.27,3.7,3.7,9.27-9.27a9.53,9.53,0,0,0,6.78,1.33l.09.22,1.15-.48A10.23,10.23,0,0,0,136,40.34l1.09-.46-.09-.22a10.69,10.69,0,0,0,1.08-.89,10.46,10.46,0,0,0,0-14.79,10.7,10.7,0,0,0-14.79,0,10.33,10.33,0,0,0-.89,1.08l-.22-.09-.46,1.09a10.21,10.21,0,0,0-1.08,2.58ZM127,27.68a5.23,5.23,0,1,1,7.39,7.39,5.35,5.35,0,0,1-7.39,0A5.23,5.23,0,0,1,127,27.68Z"/><path class="cls-1" d="M102.69,22.47l2-4.82,4.36,1.84-2,4.82Z"/><path class="cls-1" d="M94,18.75l2-4.82,4.36,1.84-2,4.82Z"/><path class="cls-1" d="M111.4,26.15l2-4.81,4.36,1.84-2,4.81Z"/><path class="cls-1" d="M141.5,98.38,143.34,94l4.82,2-1.84,4.36Z"/><path class="cls-1" d="M134.15,115.82l1.84-4.36,4.82,2L139,117.86Z"/><path class="cls-1" d="M137.82,107.1l1.84-4.36,4.82,2-1.84,4.36Z"/><path class="cls-1" d="M52.87,142.61l2-4.82,4.36,1.84-2,4.82Z"/><path class="cls-1" d="M61.59,146.29l2-4.82L68,143.31l-2,4.82Z"/><path class="cls-1" d="M44.24,139l2-4.82L50.63,136l-2,4.82Z"/><path class="cls-1" d="M41.91,132.31l-.22-.09a10.25,10.25,0,0,0,.15-1.49,10.36,10.36,0,0,0-1.48-5.28l9.27-9.27-3.7-3.7-9.29,9.29a10.82,10.82,0,0,0-6.72-1.27l-.13-.31-1.75.74a9.84,9.84,0,0,0-1.6.68l-1.46.62.1.23a9.57,9.57,0,0,0-1.09.88,10.46,10.46,0,1,0,14.79,14.79,10.89,10.89,0,0,0,.89-1.08l.22.09.46-1.09a10.13,10.13,0,0,0,1.08-2.58Zm-6.84,2.11a5.35,5.35,0,0,1-7.39,0,5.23,5.23,0,1,1,7.39,0Z"/><path class="cls-1" d="M17.61,57.32,19.45,53l4.82,2-1.84,4.36Z"/><path class="cls-1" d="M13.94,66l1.84-4.36,4.82,2-1.84,4.36Z"/><path class="cls-1" d="M21.29,48.6l1.84-4.36,4.82,2-1.84,4.36Z"/><path class="cls-1" d="M13.93,96l4.82-2,1.84,4.36-4.82,2Z"/><path class="cls-1" d="M21.29,113.5l4.82-2,1.84,4.36-4.82,2Z"/><path class="cls-1" d="M17.61,104.77l4.82-2,1.84,4.36-4.82,2Z"/><path class="cls-1" d="M14.38,90.72l.3-.13,2.25-.95-.14-.33a10.42,10.42,0,0,0,3.76-5.65H34V78.43H20.54a10.43,10.43,0,0,0-3.77-5.66l.14-.33-2.25-.95-.3-.13-2.27-1-.14.33a10.17,10.17,0,0,0-1.5-.15,10.46,10.46,0,1,0,0,20.92,10.32,10.32,0,0,0,1.5-.15l.14.34ZM5.23,81a5.23,5.23,0,1,1,5.23,5.23A5.23,5.23,0,0,1,5.23,81Z"/><path class="cls-1" d="M111.46,136l4.36-1.84,2,4.82-4.36,1.84Z"/><path class="cls-1" d="M94,143.34l4.36-1.84,2,4.82L96,148.16Z"/><path class="cls-1" d="M102.74,139.66l4.36-1.84,2,4.82-4.36,1.84Z"/><path class="cls-1" d="M90.72,147.72c0-.1-.08-.2-.13-.3l-.95-2.25-.33.14a10.42,10.42,0,0,0-5.65-3.76V128.11H78.43v13.44a10.43,10.43,0,0,0-5.66,3.77l-.33-.14-.95,2.25-.12.3-1,2.27.34.14a10.46,10.46,0,1,0,20.61,0l.33-.14ZM81,156.87a5.23,5.23,0,1,1,5.23-5.23A5.23,5.23,0,0,1,81,156.87Z"/><path class="cls-1" d="M134.15,46.27l4.82-2,1.84,4.36-4.82,2Z"/><path class="cls-1" d="M141.5,63.72l4.82-2L148.16,66l-4.82,2Z"/><path class="cls-1" d="M137.83,55l4.82-2,1.84,4.36-4.82,2Z"/><path class="cls-1" d="M71.37,14.38l.13.29.95,2.25.33-.14a10.43,10.43,0,0,0,5.65,3.76V34h5.23V20.54a10.41,10.41,0,0,0,5.66-3.77l.33.14.95-2.25.13-.29,1-2.27L91.35,12a10.49,10.49,0,0,0,.15-1.5,10.46,10.46,0,0,0-20.92,0,10.49,10.49,0,0,0,.15,1.5l-.34.14ZM81,5.23a5.23,5.23,0,1,1-5.23,5.23A5.23,5.23,0,0,1,81,5.23Z"/><path class="cls-1" d="M44.24,23.13l4.36-1.84,2,4.82-4.36,1.84Z"/><path class="cls-1" d="M61.68,15.78,66,13.94l2,4.82L63.72,20.6Z"/><path class="cls-1" d="M53,19.45l4.36-1.84,2,4.82L55,24.27Z"/></g></g></g></svg>