<svg xmlns="http://www.w3.org/2000/svg" viewBox="0 0 41.71 41.71"><defs><style>.cls-1{fill:#bd9037;}.cls-2{fill:#fff;}</style></defs><title>Asset 3</title><g id="Layer_2" data-name="Layer 2"><g id="form"><path class="cls-1" d="M41.71,19.42v2.85l-.08.17-.21,1.73a20.33,20.33,0,0,1-1.73,5.59A20.8,20.8,0,0,1,28.82,40.11a20.09,20.09,0,0,1-6.4,1.52l-.14.08H19.42l-.15-.08-.85-.08a18.72,18.72,0,0,1-3.79-.8,20.75,20.75,0,0,1-9.57-6.29A21,21,0,0,1,1.61,28.9,20.39,20.39,0,0,1,.07,22.45L0,22.28V19.42l.07-.17a19,19,0,0,1,.48-3.13A20.7,20.7,0,0,1,7.24,5.07a20.73,20.73,0,0,1,12-5L19.42,0h2.85l.16.08,1.74.2A20.46,20.46,0,0,1,29.54,1.9a20.73,20.73,0,0,1,7.33,5.62,20.06,20.06,0,0,1,3.21,5.27,20.36,20.36,0,0,1,1.56,6.47Z"/><circle class="cls-1" cx="26.01" cy="22.64" r="0.94"/><circle class="cls-1" cx="24.14" cy="22.64" r="0.66"/><path class="cls-2" d="M21.43,9.09l.81.11a11.29,11.29,0,0,1,7,3.83A11.36,11.36,0,0,1,31,15.74,11,11,0,0,1,31.76,18a10.12,10.12,0,0,1,.16,3.62c-.1.66-.26,1.31-.39,2,0,.07,0,.14-.08.24L26.4,20.7l.58-.83c.15-.22.3-.43.43-.66A1.66,1.66,0,0,0,27.5,18c-.12-.55-.29-1.1-.46-1.64a1.6,1.6,0,0,0-.64-.82c-.57-.41-1.11-.88-1.66-1.31a7.51,7.51,0,0,0-.89-.62,2,2,0,0,1-.9-1.16c-.17-.53-.29-1.08-.42-1.63a.23.23,0,0,0-.23-.22,10.19,10.19,0,0,0-3.77.12,10.06,10.06,0,0,0-3.79,1.77l0,0a9.81,9.81,0,0,1,.5.85,7.61,7.61,0,0,1,.43,1.11.82.82,0,0,1-.43,1c-.4.22-.83.41-1.24.62a1.9,1.9,0,0,0-.45.26.73.73,0,0,0-.25.42c0,.65,0,1.3-.05,2a.55.55,0,0,0,.23.43l.28.25a.35.35,0,0,1,0,.58,13.36,13.36,0,0,1-1.2.83c-.49.29-1,.56-1.5.82-.14.07-.09.17-.08.27a9.24,9.24,0,0,0,.61,2.2c.11.26.23.51.36.8.17-.36.32-.69.48-1a4.4,4.4,0,0,1,.87-1.31.54.54,0,0,1,.17-.14,1.93,1.93,0,0,1,1.73,0,4.54,4.54,0,0,1,.72.68,3,3,0,0,0,2.07,1c.22,0,.29.11.25.34a2.19,2.19,0,0,1-.58,1.08,2.62,2.62,0,0,1-1.45.85,1.32,1.32,0,0,0-.27.08.53.53,0,0,0-.33.64c.06.27.17.54.25.8a3.38,3.38,0,0,1,.13.47c0,.23,0,.31-.27.37l-.12,0c.27.15.51.29.76.42a9.89,9.89,0,0,0,4.34,1c.15,0,.35,0,.45,0s.08.28.11.42.1.58.16.9c-.45,0-.88,0-1.31,0a10.83,10.83,0,0,1-4.31-1.11,11.23,11.23,0,0,1-2.82-2,11.37,11.37,0,0,1-2.17-2.81,11.07,11.07,0,0,1-1.16-3.25,11.24,11.24,0,0,1,.12-4.81,11.07,11.07,0,0,1,1.76-3.85A11.3,11.3,0,0,1,14.46,11a10.65,10.65,0,0,1,3.66-1.59c.58-.13,1.18-.19,1.78-.28l.14,0Zm9.06,12.63a9.43,9.43,0,0,0-1-6,3.81,3.81,0,0,0-1,.63,1,1,0,0,0-.32.73,3.8,3.8,0,0,0,.2,1.29,2.44,2.44,0,0,0,.85,1.29,3.26,3.26,0,0,1,1.05,1.39C30.33,21.3,30.41,21.51,30.48,21.72Z"/><path class="cls-2" d="M28.95,32.62a4.43,4.43,0,0,1-.75-.39,2.57,2.57,0,0,1-.49-.59l-2.18-3.17-.13-.17-2.52,4h0a5.53,5.53,0,0,1-.13-.55q-.3-1.55-.6-3.09c-.24-1.25-.47-2.51-.71-3.76q-.47-2.41-.94-4.82c-.08-.41-.16-.81-.22-1.22a.33.33,0,0,1,.09-.23.21.21,0,0,1,.3,0l2.51,1.57,3.42,2.13L29,23.82l3.12,1.95.14.09-4.69.94.59.88c.63.92,1.27,1.83,1.89,2.75a1.46,1.46,0,0,1,.16,1.51,1.15,1.15,0,0,1-.73.63l-.14.06Z"/></g></g></svg>