<svg xmlns="http://www.w3.org/2000/svg" viewBox="0 0 85.02 63.82"><defs><style>.cls-1{fill:#fff;}</style></defs><title>Asset 12</title><g id="Layer_2" data-name="Layer 2"><g id="quotes"><path class="cls-1" d="M69.08,0H15.94C7.14,0,0,5.36,0,12V51.86c0,6.61,7.14,12,15.94,12H69.08c8.81,0,15.94-5.36,15.94-12V12C85,5.36,77.88,0,69.08,0Zm-.45,39.06a8.1,8.1,0,0,1-6.73,6.54,380.61,380.61,0,0,1-38.76,0,7.81,7.81,0,0,1-6.73-6.54,56.64,56.64,0,0,1,0-14.33,7.77,7.77,0,0,1,6.73-6.47,360.87,360.87,0,0,1,38.76,0,6.82,6.82,0,0,1,6.73,6.12A60.52,60.52,0,0,1,68.62,39.06Z"/><polygon class="cls-1" points="37.2 39.89 53.14 31.91 37.2 23.93 37.2 39.89"/></g></g></svg>